<svg width="41" height="41" viewBox="0 0 41 41" fill="none" xmlns="http://www.w3.org/2000/svg">
<path d="M32.3334 5.17334C33.2174 5.17334 34.0653 5.52453 34.6904 6.14965C35.3155 6.77477 35.6667 7.62262 35.6667 8.50667V31.84C35.6667 32.7241 35.3155 33.5719 34.6904 34.197C34.0653 34.8221 33.2174 35.1733 32.3334 35.1733H9.00002C8.11597 35.1733 7.26812 34.8221 6.643 34.197C6.01788 33.5719 5.66669 32.7241 5.66669 31.84V8.50667C5.66669 7.62262 6.01788 6.77477 6.643 6.14965C7.26812 5.52453 8.11597 5.17334 9.00002 5.17334H32.3334ZM31.5 31.0067V22.1733C31.5 20.7323 30.9276 19.3503 29.9086 18.3314C28.8897 17.3124 27.5077 16.74 26.0667 16.74C24.65 16.74 23 17.6067 22.2 18.9067V17.0567H17.55V31.0067H22.2V22.79C22.2 21.5067 23.2334 20.4567 24.5167 20.4567C25.1355 20.4567 25.729 20.7025 26.1666 21.1401C26.6042 21.5777 26.85 22.1712 26.85 22.79V31.0067H31.5ZM12.1334 14.44C12.876 14.44 13.5882 14.145 14.1133 13.6199C14.6384 13.0948 14.9334 12.3826 14.9334 11.64C14.9334 10.09 13.6834 8.82334 12.1334 8.82334C11.3863 8.82334 10.6699 9.12009 10.1417 9.64832C9.61344 10.1765 9.31669 10.893 9.31669 11.64C9.31669 13.19 10.5834 14.44 12.1334 14.44ZM14.45 31.0067V17.0567H9.83335V31.0067H14.45Z" fill="#FAFAFA"/>
</svg>
