<svg width="40" height="41" viewBox="0 0 40 41" fill="none" xmlns="http://www.w3.org/2000/svg">
<path fill-rule="evenodd" clip-rule="evenodd" d="M11.5 23.6733C11.5 23.2755 11.658 22.894 11.9393 22.6127C12.2206 22.3314 12.6022 22.1733 13 22.1733H27C27.3978 22.1733 27.7794 22.3314 28.0607 22.6127C28.342 22.894 28.5 23.2755 28.5 23.6733C28.5 24.0712 28.342 24.4527 28.0607 24.734C27.7794 25.0153 27.3978 25.1733 27 25.1733H13C12.6022 25.1733 12.2206 25.0153 11.9393 24.734C11.658 24.4527 11.5 24.0712 11.5 23.6733ZM11.5 29.6733C11.5 29.2755 11.658 28.894 11.9393 28.6127C12.2206 28.3314 12.6022 28.1733 13 28.1733H27C27.3978 28.1733 27.7794 28.3314 28.0607 28.6127C28.342 28.894 28.5 29.2755 28.5 29.6733C28.5 30.0712 28.342 30.4527 28.0607 30.734C27.7794 31.0153 27.3978 31.1733 27 31.1733H13C12.6022 31.1733 12.2206 31.0153 11.9393 30.734C11.658 30.4527 11.5 30.0712 11.5 29.6733Z" fill="#FAFAFA"/>
<path fill-rule="evenodd" clip-rule="evenodd" d="M5 5.67334C5 3.46934 6.796 1.67334 9 1.67334H22.38C23.504 1.67334 24.564 2.14934 25.31 2.93534L25.322 2.94934L33.946 12.3533C34.664 13.1193 35 14.1213 35 15.0733V35.6733C35 37.8773 33.204 39.6733 31 39.6733H9C6.796 39.6733 5 37.8773 5 35.6733V5.67334ZM22.378 5.67334H9V35.6733H31V15.0573L22.408 5.68734L22.402 5.68534C22.3947 5.68005 22.3866 5.67599 22.378 5.67334Z" fill="#FAFAFA"/>
<path fill-rule="evenodd" clip-rule="evenodd" d="M22.38 1.67334C22.9104 1.67334 23.4191 1.88405 23.7942 2.25913C24.1693 2.6342 24.38 3.14291 24.38 3.67334V13.0733H33C33.2626 13.0733 33.5227 13.1251 33.7654 13.2256C34.008 13.3261 34.2285 13.4734 34.4142 13.6591C34.5999 13.8448 34.7473 14.0653 34.8478 14.308C34.9483 14.5506 35 14.8107 35 15.0733C35 15.336 34.9483 15.5961 34.8478 15.8387C34.7473 16.0814 34.5999 16.3018 34.4142 16.4876C34.2285 16.6733 34.008 16.8206 33.7654 16.9211C33.5227 17.0216 33.2626 17.0733 33 17.0733H22.38C21.8496 17.0733 21.3409 16.8626 20.9658 16.4876C20.5907 16.1125 20.38 15.6038 20.38 15.0733V3.67334C20.38 3.14291 20.5907 2.6342 20.9658 2.25913C21.3409 1.88405 21.8496 1.67334 22.38 1.67334Z" fill="#FAFAFA"/>
</svg>
