<svg width="41" height="41" viewBox="0 0 41 41" fill="none" xmlns="http://www.w3.org/2000/svg">
<path d="M32.0833 8.35645C30.5553 6.81299 28.7353 5.58923 26.7294 4.75653C24.7235 3.92384 22.5719 3.49888 20.4 3.50645C11.3 3.50645 3.88335 10.9231 3.88335 20.0231C3.88335 22.9398 4.65001 25.7731 6.08334 28.2731L3.75001 36.8398L12.5 34.5398C14.9167 35.8564 17.6333 36.5564 20.4 36.5564C29.5 36.5564 36.9167 29.1398 36.9167 20.0398C36.9167 15.6231 35.2 11.4731 32.0833 8.35645ZM20.4 33.7564C17.9333 33.7564 15.5167 33.0898 13.4 31.8398L12.9 31.5398L7.70001 32.9064L9.08334 27.8398L8.75001 27.3231C7.37959 25.1347 6.65191 22.6052 6.65001 20.0231C6.65001 12.4564 12.8167 6.28978 20.3833 6.28978C24.05 6.28978 27.5 7.72311 30.0833 10.3231C31.3625 11.5964 32.3762 13.1109 33.0657 14.7788C33.7552 16.4468 34.1067 18.235 34.1 20.0398C34.1333 27.6064 27.9667 33.7564 20.4 33.7564ZM27.9333 23.4898C27.5167 23.2898 25.4833 22.2898 25.1167 22.1398C24.7333 22.0064 24.4667 21.9398 24.1833 22.3398C23.9 22.7564 23.1167 23.6898 22.8833 23.9564C22.65 24.2398 22.4 24.2731 21.9833 24.0564C21.5667 23.8564 20.2333 23.4064 18.6667 22.0064C17.4333 20.9064 16.6167 19.5564 16.3667 19.1398C16.1333 18.7231 16.3333 18.5064 16.55 18.2898C16.7333 18.1064 16.9667 17.8064 17.1667 17.5731C17.3667 17.3398 17.45 17.1564 17.5833 16.8898C17.7167 16.6064 17.65 16.3731 17.55 16.1731C17.45 15.9731 16.6167 13.9398 16.2833 13.1064C15.95 12.3064 15.6 12.4064 15.35 12.3898H14.55C14.2667 12.3898 13.8333 12.4898 13.45 12.9064C13.0833 13.3231 12.0167 14.3231 12.0167 16.3564C12.0167 18.3898 13.5 20.3564 13.7 20.6231C13.9 20.9064 16.6167 25.0731 20.75 26.8564C21.7333 27.2898 22.5 27.5398 23.1 27.7231C24.0833 28.0398 24.9833 27.9898 25.7 27.8898C26.5 27.7731 28.15 26.8898 28.4833 25.9231C28.8333 24.9564 28.8333 24.1398 28.7167 23.9564C28.6 23.7731 28.35 23.6898 27.9333 23.4898Z" fill="#FAFAFA"/>
</svg>
