<svg width="74" height="48" viewBox="0 0 74 48" fill="none" xmlns="http://www.w3.org/2000/svg">
<path d="M13.2031 33.7031C13.2031 34.25 13.2617 34.6862 13.3789 35.0117C13.5091 35.3372 13.75 35.5977 14.1016 35.793C14.4531 35.9753 14.974 36.125 15.6641 36.2422V38H1.01562V36.2422C1.75781 36.099 2.32422 35.9297 2.71484 35.7344C3.10547 35.5391 3.36589 35.2721 3.49609 34.9336C3.63932 34.5951 3.71094 34.1328 3.71094 33.5469V14.25C3.71094 13.6641 3.63932 13.2018 3.49609 12.8633C3.36589 12.5117 3.10547 12.2383 2.71484 12.043C2.32422 11.8477 1.75781 11.6849 1.01562 11.5547V9.79688H15.6641V11.5547C14.987 11.6849 14.4661 11.8411 14.1016 12.0234C13.75 12.2057 13.5091 12.4596 13.3789 12.7852C13.2617 13.1107 13.2031 13.5469 13.2031 14.0938V33.7031ZM31.2695 33.5469C31.2695 34.1589 31.3346 34.6341 31.4648 34.9727C31.5951 35.3112 31.8555 35.5716 32.2461 35.7539C32.6367 35.9362 33.2096 36.099 33.9648 36.2422V38H19.3164V36.2422C19.9935 36.125 20.5078 35.9753 20.8594 35.793C21.2109 35.6107 21.4518 35.3568 21.582 35.0312C21.7122 34.7057 21.7773 34.263 21.7773 33.7031V14.0938C21.7773 13.5208 21.7122 13.0781 21.582 12.7656C21.4518 12.4401 21.2109 12.1862 20.8594 12.0039C20.5078 11.8216 19.9935 11.6719 19.3164 11.5547V9.79688H33.9648V11.5547C33.2096 11.6849 32.6367 11.8477 32.2461 12.043C31.8555 12.2253 31.5951 12.4857 31.4648 12.8242C31.3346 13.1628 31.2695 13.638 31.2695 14.25V33.5469ZM8.47656 24.6992V22.5312H26.4844V24.6992H8.47656Z" fill="#29877D"/>
<path d="M52.5234 31.9062C52.901 33 53.2526 33.8398 53.5781 34.4258C53.9036 34.9987 54.2747 35.4154 54.6914 35.6758C55.1211 35.9232 55.6875 36.112 56.3906 36.2422V38H40.4531V36.2422C41.3385 36.099 41.9896 35.8906 42.4062 35.6172C42.8229 35.3438 43.0312 34.9076 43.0312 34.3086C43.0312 33.6966 42.8555 32.8177 42.5039 31.6719L37.1523 14.7188H37.8945L32.6602 31.6328C32.3086 32.7786 32.1328 33.6641 32.1328 34.2891C32.1328 34.901 32.3346 35.3438 32.7383 35.6172C33.1549 35.8906 33.806 36.099 34.6914 36.2422V38H25.7266V36.2422C26.4427 36.112 27.0156 35.9167 27.4453 35.6562C27.875 35.3958 28.2591 34.9596 28.5977 34.3477C28.9362 33.7227 29.3138 32.8112 29.7305 31.6133L37.4453 9.79688H44.8086L52.5234 31.9062ZM31.9375 29.0547L32.7383 26.75H45.1211L45.9609 29.0547H31.9375Z" fill="#333333"/>
<path d="M72.668 9.79688L72.8828 18.3711H71.2031C70.8255 16.7435 70.3763 15.4805 69.8555 14.582C69.3346 13.6836 68.599 13.0391 67.6484 12.6484C66.7109 12.2578 65.4154 12.0169 63.7617 11.9258L61.2031 11.8086V23.0391L63.4688 22.9805C64.1979 22.9544 64.7708 22.8112 65.1875 22.5508C65.6172 22.2904 65.9557 21.8607 66.2031 21.2617C66.4505 20.6628 66.6784 19.8555 66.8867 18.8398H68.4688V29.25H66.8867C66.6914 28.2083 66.4635 27.3945 66.2031 26.8086C65.9557 26.2096 65.6172 25.7865 65.1875 25.5391C64.7578 25.2786 64.1849 25.1289 63.4688 25.0898L61.2031 25.0312V33.2539C61.2031 33.9049 61.2747 34.4258 61.418 34.8164C61.5742 35.194 61.8607 35.4935 62.2773 35.7148C62.694 35.9362 63.2995 36.112 64.0938 36.2422V38H49.0156V36.2422C49.7578 36.099 50.3242 35.9362 50.7148 35.7539C51.1055 35.5586 51.3659 35.2917 51.4961 34.9531C51.6393 34.6016 51.7109 34.1328 51.7109 33.5469V14.25C51.7109 13.6641 51.6393 13.2018 51.4961 12.8633C51.3659 12.5117 51.1055 12.2448 50.7148 12.0625C50.3242 11.8672 49.7578 11.6979 49.0156 11.5547V9.79688H72.668Z" fill="#29877D"/>
</svg>
